<svg version="1.1" width="384" height="256" viewBox="0.0 0.0 256.0 192.0" fill="none" stroke="none" stroke-linecap="square" stroke-miterlimit="10" xmlns:xlink="http://www.w3.org/1999/xlink" xmlns="http://www.w3.org/2000/svg">
	<path fill="#1c64ff" d="m6.2584524 138.72304q-1.421875 0 -1.421875 -1.3125q0 -1.171875 1.296875 -1.421875l1.671875 -0.234375q2.484375 -0.359375 3.671875 -1.421875q1.1875 -1.0625 1.1875 -3.5625l0 -67.98438q0 -2.140625 -0.65625 -2.96875q-0.65625 -0.828125 -2.3125 -0.953125l-2.734375 -0.359375q-1.296875 -0.234375 -1.296875 -1.421875q0 -1.1875 1.296875 -1.421875q3.328125 -0.703125 5.703125 -1.65625q2.375 -0.953125 3.921874 -1.90625q1.890625 -1.1875 2.84375 -1.1875q1.296875 0 1.296875 1.90625l0 77.95313q0 2.5 0.765625 3.515625q0.78125 1.0 3.28125 1.359375l2.71875 0.34375q1.3125 0.25 1.3125 1.421875q0 1.3125 -1.421875 1.3125l-21.125 0zm37.260605 -71.78126q-2.5 0 -4.21875 -1.78125q-1.71875 -1.78125 -1.71875 -4.515625q0 -2.734375 1.71875 -4.453125q1.71875 -1.71875 4.21875 -1.71875q2.484375 0 4.140625 1.71875q1.671875 1.71875 1.671875 4.453125q0 2.734375 -1.671875 4.515625q-1.65625 1.78125 -4.140625 1.78125zm-9.96875 71.78126q-1.7812519 0 -1.7812519 -1.3125q0 -1.0625 1.5468769 -1.421875l1.421875 -0.234375q2.96875 -0.46875 3.796875 -1.46875q0.828125 -1.015625 0.828125 -3.515625l0 -39.859383q0 -2.140625 -0.65625 -2.90625q-0.65625 -0.78125 -2.3125 -1.015625l-2.484375 -0.359375q-1.546875 -0.109375 -1.546875 -1.296875q0 -0.953125 1.890625 -1.3125q3.6875 -0.59375 5.9375 -1.890625q2.25 -1.3125 4.390625 -3.203125q1.0625 -1.078125 1.78125 -1.078125q1.0625 0 1.0625 1.421875l0 51.500008q0 2.5 0.703125 3.5625q0.71875 1.0625 2.75 1.3125l2.953125 0.34375q1.3125 0.25 1.3125 1.3125q0 1.421875 -1.78125 1.421875l-19.8125 0zm47.335327 1.0625q-4.859375 0 -9.375 -3.078125q-2.609375 -1.78125 -4.734375 0.953125q-1.1875 1.296875 -1.78125 1.703125q-0.59375 0.421875 -1.1875 0.421875q-1.3125 0 -0.953125 -1.65625q0.46875 -2.734375 0.703125 -7.0q0.25 -4.2656326 0.25 -11.390633l0 -56.953125q0 -2.140625 -0.65625 -2.90625q-0.65625 -0.78125 -2.3125 -1.015625l-2.484375 -0.359375q-1.3125 -0.234375 -1.3125 -1.421875q0 -1.1875 1.3125 -1.421875q3.3125 -0.703125 5.5625 -1.65625q2.265625 -0.953125 3.796875 -1.90625q1.90625 -1.1875 2.859375 -1.1875q1.296875 0 1.296875 1.90625l0 29.3125q0 0.9375 0.765625 1.234375q0.78125 0.296875 1.734375 -0.640625q5.09375 -5.234375 11.15625 -5.234375q5.453125 0 9.65625 3.625q4.21875 3.625 6.640625 10.03125q2.4375 6.40625 2.4375 15.0625q0 9.859375 -3.09375 17.453125q-3.078125 7.5937576 -8.359375 11.859383q-5.265625 4.265625 -11.921875 4.265625zm-0.234375 -2.96875q6.640625 0 10.734375 -7.828125q4.09375 -7.8281326 4.09375 -21.109383q0 -12.234375 -3.5625 -18.640625q-3.546875 -6.40625 -10.078125 -6.40625q-4.03125 0 -7.0 3.328125q-2.96875 3.3125 -2.96875 9.25l0 29.90625q0 5.3437576 2.4375 8.421883q2.4375 3.078125 6.34375 3.078125zm31.564682 1.90625q-1.421875 0 -1.421875 -1.3125q0 -1.171875 1.296875 -1.421875l1.671875 -0.234375q2.484375 -0.359375 3.25 -1.421875q0.78125 -1.0625 0.78125 -3.5625l0 -67.98438q0 -2.140625 -0.65625 -2.90625q-0.65625 -0.78125 -2.3125 -1.015625l-2.484375 -0.359375q-1.3125 -0.234375 -1.3125 -1.421875q0 -1.1875 1.3125 -1.421875q3.3125 -0.703125 5.5625 -1.65625q2.265625 -0.953125 3.8125 -1.90625q1.890625 -1.1875 2.84375 -1.1875q1.296875 0 1.296875 1.90625l0 31.4375q0 1.078125 0.703125 1.25q0.71875 0.171875 1.796875 -0.765625q4.5 -4.15625 7.9375 -5.703125q3.453125 -1.546875 7.25 -1.546875q5.578125 0 8.78125 3.75q3.203125 3.734375 3.203125 10.96875l0 38.562508q0 2.5 0.765625 3.515625q0.78125 1.0 3.265625 1.359375l2.609375 0.34375q1.3125 0.25 1.3125 1.421875q0 1.3125 -1.421875 1.3125l-19.9375 0q-1.671875 0 -1.671875 -1.3125q0 -1.171875 1.3125 -1.421875l1.65625 -0.234375q2.5 -0.359375 3.265625 -1.421875q0.765625 -1.0625 0.765625 -3.5625l0 -37.250008q0 -5.8125 -2.140625 -8.1875q-2.125 -2.375 -6.046875 -2.375q-3.796875 0 -6.828125 2.203125q-3.015625 2.1875 -4.796875 5.8125q-1.78125 3.609375 -1.78125 8.0l0 31.796883q0 2.5 0.765625 3.5625q0.78125 1.0625 3.28125 1.3125l3.203125 0.34375q1.296875 0.25 1.296875 1.421875q0 1.3125 -1.421875 1.3125l-20.765625 0zm65.2684 1.0625q-2.625 0 -4.46875 -1.71875q-1.828125 -1.71875 -1.828125 -4.5625q0 -2.734375 1.828125 -4.453125q1.84375 -1.7187576 4.46875 -1.7187576q2.359375 0 4.25 1.7187576q1.90625 1.71875 1.90625 4.453125q0 2.84375 -1.90625 4.5625q-1.890625 1.71875 -4.25 1.71875zm26.101883 -72.84376q-2.609375 0 -4.28125 -1.84375q-1.65625 -1.84375 -1.65625 -4.453125q0 -2.734375 1.65625 -4.453125q1.671875 -1.71875 4.28125 -1.71875q2.609375 0 4.203125 1.71875q1.609375 1.71875 1.609375 4.453125q0 2.734375 -1.671875 4.515625q-1.65625 1.78125 -4.140625 1.78125zm-13.0625 97.29688q-3.4375 0 -5.6875 -1.78125q-2.25 -1.78125 -2.25 -4.625q0 -2.015625 1.25 -3.5q1.234375 -1.484375 3.375 -1.484375q1.890625 0 2.734375 1.0q0.828125 1.015625 1.296875 2.3125q0.46875 1.3125 1.234375 2.3125q0.78125 1.015625 2.328125 1.015625q2.25 0 3.4375 -2.609375q1.1875 -2.609375 1.1875 -7.359375l0 -58.609383q0 -2.140625 -0.65625 -2.90625q-0.65625 -0.78125 -2.3125 -1.015625l-2.484375 -0.359375q-1.546875 -0.109375 -1.546875 -1.296875q0 -0.953125 1.890625 -1.3125q3.6875 -0.59375 5.9375 -1.890625q2.25 -1.3125 4.390625 -3.203125q1.0625 -1.078125 1.78125 -1.078125q1.0625 0 1.0625 1.421875l0 54.234383q0 14.234375 -4.625 22.484375q-4.625 8.25 -12.34375 8.25zm40.589203 -24.453125q-2.734375 0 -5.828125 -0.65625q-3.078125 -0.640625 -4.96875 -1.59375q-1.078125 -0.59375 -1.078125 -2.015625l-0.34375 -13.296883q0 -2.015625 1.53125 -2.015625q1.3125 0 1.78125 1.90625q2.015625 8.421883 4.921875 11.515633q2.90625 3.078125 7.0625 3.078125q3.4375 0 5.6875 -2.671875q2.265625 -2.671875 2.265625 -7.4218826q0 -4.734375 -2.609375 -8.40625q-2.609375 -3.6875 -8.78125 -8.078125q-6.171875 -4.15625 -9.015625 -8.359375q-2.84375 -4.21875 -2.84375 -9.203125q0 -6.765625 4.734375 -10.921875q4.75 -4.15625 12.578125 -4.15625q2.375 0 4.625 0.546875q2.265625 0.53125 4.046875 1.71875q1.0625 0.703125 1.0625 1.890625l0.234375 13.0625q0 1.78125 -1.421875 1.78125q-0.828125 0 -1.1875 -0.53125q-0.359375 -0.546875 -0.59375 -1.375q-2.375 -7.71875 -4.75 -10.734375q-2.359375 -3.03125 -5.8125 -3.03125q-3.078125 0 -5.09375 2.140625q-2.015625 2.140625 -2.015625 5.34375q0 4.140625 2.484375 7.234375q2.5 3.078125 9.015625 7.59375q5.9375 4.265625 8.953125 9.1875q3.03125 4.921875 3.03125 10.75q0 7.5937576 -4.859375 12.156258q-4.859375 4.5625 -12.8125 4.5625z" fill-rule="nonzero"/>
</svg>
