<svg version="1.1" viewBox="0.0 0.0 321.21259842519686 143" fill="none" stroke="none" stroke-linecap="square" stroke-miterlimit="10" xmlns:xlink="http://www.w3.org/1999/xlink" xmlns="http://www.w3.org/2000/svg"><clipPath id="p.0"><path d="m0 0l321.2126 0l0 142.92914l-321.2126 0l0 -142.92914z" clip-rule="nonzero"/></clipPath><g clip-path="url(#p.0)"><path fill="#000000" fill-opacity="0.0" d="m0 0l321.2126 0l0 142.92914l-321.2126 0z" fill-rule="evenodd"/><path fill="#000000" fill-opacity="0.0" d="m0 0l321.22833 0l0 142.92914l-321.22833 0z" fill-rule="evenodd"/><path fill="#000000" fill-opacity="0.0" d="m0.8582677 41.740158l320.0 0l0 101.19685l-320.0 0z" fill-rule="evenodd"/><path fill="#0c8aff" d="m73.292564 130.73857q-5.4375 0 -9.5 -2.1875q-4.046875 -2.1874924 -6.34375 -6.2343674q-2.28125 -4.0625 -2.28125 -9.390625l0 -49.59375l-19.203125 0l0 -10.453125l30.71875 0l0 60.046875q0 3.40625 1.921875 5.390625q1.921875 1.96875 5.21875 1.96875l18.140625 0l0 10.453117l-18.671875 0zm32.21254 0l0 -10.453117l20.578125 0l0 -37.75l-17.90625 0l0 -10.453125l29.109367 0l0 48.203125l18.875 0l0 10.453117l-50.656242 0zm25.062492 -68.79687q-3.7343674 0 -5.9843674 -1.96875q-2.234375 -1.96875 -2.234375 -5.28125q0 -3.40625 2.234375 -5.375q2.25 -1.984375 5.9843674 -1.984375q3.734375 0 5.96875 1.984375q2.234375 1.96875 2.234375 5.375q0 3.3125 -2.234375 5.28125q-2.234375 1.96875 -5.96875 1.96875zm66.446915 69.85937q-7.25 0 -11.515625 -3.9999924q-4.265625 -4.0 -4.265625 -10.921875l2.453125 2.65625l-2.453125 0l0 11.203117l-11.421875 0l0 -77.85937l11.53125 0l0 16.75l-0.328125 13.640625l2.671875 0l-2.453125 2.671875q0 -6.9375 4.3125 -10.9375q4.328125 -4.0 11.46875 -4.0q8.859375 0 14.1875 5.984375q5.328125 5.96875 5.328125 16.203125l0 16.53125q0 10.140625 -5.328125 16.109375q-5.328125 5.9687424 -14.1875 5.9687424zm-3.953125 -10.015617q5.65625 0 8.859375 -3.25q3.203125 -3.265625 3.203125 -9.453125l0 -15.359375q0 -6.1875 -3.203125 -9.4375q-3.203125 -3.25 -8.859375 -3.25q-5.4375 0 -8.578125 3.359375q-3.140625 3.359375 -3.140625 9.328125l0 15.359375q0 5.984375 3.140625 9.34375q3.140625 3.359375 8.578125 3.359375zm40.74379 8.953117l0 -77.85937l11.53125 0l0 19.203125l-0.109375 11.1875l2.765625 0l-2.765625 2.671875q0 -7.03125 4.15625 -10.984375q4.15625 -3.953125 11.515625 -3.953125q8.75 0 13.96875 5.609375q5.234375 5.59375 5.234375 15.09375l0 39.031242l-11.515625 0l0 -37.749992q0 -5.765625 -3.09375 -8.96875q-3.09375 -3.203125 -8.4375 -3.203125q-5.4375 0 -8.578125 3.359375q-3.140625 3.359375 -3.140625 9.546875l0 37.015617l-11.53125 0z" fill-rule="nonzero"/></g></svg>