<svg version="1.1" viewBox="0.0 0.0 960.0 130.77165354330708" fill="none" stroke="none" stroke-linecap="square" stroke-miterlimit="10" xmlns:xlink="http://www.w3.org/1999/xlink" xmlns="http://www.w3.org/2000/svg"><clipPath id="p.0"><path d="m0 0l960.0 0l0 130.77165l-960.0 0l0 -130.77165z" clip-rule="nonzero"/></clipPath><g clip-path="url(#p.0)"><path fill="#000000" fill-opacity="0.0" d="m0 0l960.0 0l0 130.77165l-960.0 0z" fill-rule="evenodd"/><path fill="#000000" fill-opacity="0.0" d="m0 -0.061931234l960.0 0l0 130.89764l-960.0 0z" fill-rule="evenodd"/><path fill="#0969da" d="m43.875 97.25807q-4.703125 0 -8.203125 -1.875q-3.484375 -1.890625 -5.46875 -5.390625q-1.96875 -3.5 -1.96875 -8.09375l0 -42.781254l-16.5625 0l0 -9.015625l26.484375 0l0 51.79688q0 2.9375 1.65625 4.640625q1.65625 1.703125 4.515625 1.703125l15.640625 0l0 9.015625l-16.09375 0zm27.778137 0l0 -9.015625l17.75 0l0 -32.562504l-15.453125 0l0 -9.015625l25.125 0l0 41.57813l16.28125 0l0 9.015625l-43.703125 0zm21.609375 -59.343754q-3.21875 0 -5.15625 -1.703125q-1.921875 -1.703125 -1.921875 -4.546875q0 -2.953125 1.921875 -4.640625q1.9375 -1.703125 5.15625 -1.703125q3.21875 0 5.15625 1.703125q1.9375 1.6875 1.9375 4.640625q0 2.84375 -1.9375 4.546875q-1.9375 1.703125 -5.15625 1.703125zm57.325012 60.26563q-6.25 0 -9.9375 -3.453125q-3.671875 -3.453125 -3.671875 -9.421875l2.109375 2.296875l-2.109375 0l0 9.65625l-9.84375 0l0 -67.15625l9.921875 0l0 14.4375l-0.265625 11.78125l2.296875 0l-2.109375 2.296875q0 -5.984375 3.71875 -9.421875q3.734375 -3.453125 9.890625 -3.453125q7.640625 0 12.234375 5.15625q4.609375 5.140625 4.609375 13.968754l0 14.265625q0 8.734375 -4.609375 13.890625q-4.59375 5.15625 -12.234375 5.15625zm-3.40625 -8.65625q4.875 0 7.640625 -2.796875q2.765625 -2.8125 2.765625 -8.140625l0 -13.25q0 -5.343754 -2.765625 -8.140629q-2.765625 -2.8125 -7.640625 -2.8125q-4.6875 0 -7.40625 2.90625q-2.71875 2.890625 -2.71875 8.046879l0 13.25q0 5.140625 2.71875 8.046875q2.71875 2.890625 7.40625 2.890625zm35.153137 7.734375l0 -67.15625l9.921875 0l0 16.5625l-0.078125 9.65625l2.390625 0l-2.390625 2.296875q0 -6.078125 3.578125 -9.46875q3.59375 -3.40625 9.9375 -3.40625q7.546875 0 12.046875 4.828125q4.515625 4.828125 4.515625 13.015625l0 33.67188l-9.9375 0l0 -32.5625q0 -4.968754 -2.671875 -7.734379q-2.65625 -2.765625 -7.265625 -2.765625q-4.6875 0 -7.40625 2.90625q-2.71875 2.890625 -2.71875 8.234379l0 31.921875l-9.921875 0zm115.54065 -25.859375l0 -9.015629l29.4375 0l0 9.015629l-29.4375 0zm105.2594 25.859375l0 -67.15625l9.921875 0l0 16.5625l-0.078125 9.65625l2.390625 0l-2.390625 2.296875q0 -6.078125 3.578125 -9.46875q3.59375 -3.40625 9.9375 -3.40625q7.546875 0 12.046875 4.828125q4.515625 4.828125 4.515625 13.015625l0 33.67188l-9.9375 0l0 -32.5625q0 -4.968754 -2.671875 -7.734379q-2.65625 -2.765625 -7.265625 -2.765625q-4.6875 0 -7.40625 2.90625q-2.71875 2.890625 -2.71875 8.234379l0 31.921875l-9.921875 0zm80.59064 0q-6.90625 0 -10.78125 -3.765625q-3.859375 -3.78125 -3.859375 -10.5l0 -27.312504l-13.96875 0l0 -9.015625l13.96875 0l0 -14.265625l9.9375 0l0 14.265625l19.78125 0l0 9.015625l-19.78125 0l0 27.312504q0 5.25 5.0625 5.25l13.796875 0l0 9.015625l-14.15625 0zm27.496887 0l0 -50.593754l8.28125 0l0 6.4375l1.84375 0l-1.375 1.921875q0 -4.21875 2.296875 -6.75q2.296875 -2.53125 6.15625 -2.53125q4.140625 0 6.390625 3.21875q2.265625 3.21875 2.265625 8.828125l-2.203125 -4.6875l3.484375 0l-1.46875 1.921875q0 -4.21875 2.34375 -6.75q2.34375 -2.53125 6.3125 -2.53125q4.6875 0 7.34375 3.546875q2.671875 3.53125 2.671875 9.421875l0 38.54688l-8.828125 0l0 -38.26563q0 -2.859375 -1.25 -4.421875q-1.234375 -1.5625 -3.53125 -1.5625q-2.296875 0 -3.546875 1.515625q-1.234375 1.515625 -1.234375 4.375l0 38.35938l-7.453125 0l0 -38.26563q0 -2.953125 -1.296875 -4.46875q-1.28125 -1.515625 -3.671875 -1.515625q-2.296875 0 -3.453125 1.515625q-1.140625 1.515625 -1.140625 4.375l0 38.35938l-8.9375 0zm84.65314 0q-4.703125 0 -8.203125 -1.875q-3.484375 -1.890625 -5.46875 -5.390625q-1.96875 -3.5 -1.96875 -8.09375l0 -42.781254l-16.5625 0l0 -9.015625l26.484375 0l0 51.79688q0 2.9375 1.65625 4.640625q1.65625 1.703125 4.515625 1.703125l15.640625 0l0 9.015625l-16.09375 0zm82.97815 0l0 -9.015625l17.75 0l0 -32.562504l-15.453125 0l0 -9.015625l25.125 0l0 41.57813l16.28125 0l0 9.015625l-43.703125 0zm21.609375 -59.343754q-3.21875 0 -5.15625 -1.703125q-1.921875 -1.703125 -1.921875 -4.546875q0 -2.953125 1.921875 -4.640625q1.9375 -1.703125 5.15625 -1.703125q3.21875 0 5.15625 1.703125q1.9375 1.6875 1.9375 4.640625q0 2.84375 -1.9375 4.546875q-1.9375 1.703125 -5.15625 1.703125zm33.871887 59.343754l0 -50.593754l9.84375 0l0 9.65625l2.390625 0l-2.390625 2.296875q0 -6.078125 3.578125 -9.46875q3.59375 -3.40625 9.9375 -3.40625q7.546875 0 12.046875 4.828125q4.515625 4.828125 4.515625 13.015625l0 33.67188l-9.9375 0l0 -32.5625q0 -4.968754 -2.671875 -7.640629q-2.65625 -2.671875 -7.265625 -2.671875q-4.6875 0 -7.40625 2.8125q-2.71875 2.796875 -2.71875 8.140629l0 31.921875l-9.921875 0zm110.400024 16.5625l0 -9.203125l12.6875 0q5.0625 0 7.90625 -2.765625q2.859375 -2.75 2.859375 -7.8125l0 -38.26563l-20.703125 0l0 -9.109375l30.640625 0l0 47.468754q0 9.109375 -5.53125 14.390625q-5.515625 5.296875 -14.890625 5.296875l-12.96875 0zm27.953125 -75.90625q-3.21875 0 -5.15625 -1.703125q-1.921875 -1.703125 -1.921875 -4.546875q0 -2.953125 1.921875 -4.640625q1.9375 -1.703125 5.15625 -1.703125q3.21875 0 5.15625 1.703125q1.9375 1.6875 1.9375 4.640625q0 2.84375 -1.9375 4.546875q-1.9375 1.703125 -5.15625 1.703125zm45.371887 60.17188q-5.4375 0 -9.53125 -1.75q-4.09375 -1.75 -6.4375 -4.828125q-2.34375 -3.078125 -2.71875 -7.3125l9.9375 0q0.375 2.484375 2.671875 4.0q2.296875 1.515625 6.078125 1.515625l3.953125 0q4.5 0 6.796875 -1.828125q2.3125 -1.84375 2.3125 -4.890625q0 -2.9375 -2.078125 -4.640625q-2.0625 -1.703125 -6.109375 -2.25l-6.53125 -1.015625q-8.109375 -1.28125 -11.921875 -4.640625q-3.8125 -3.359375 -3.8125 -9.984379q0 -7.0 4.546875 -10.8125q4.5625 -3.8125 13.484375 -3.8125l3.484375 0q7.921875 0 12.65625 3.640625q4.734375 3.625 5.390625 9.6875l-9.9375 0q-0.375 -2.203125 -2.453125 -3.578125q-2.0625 -1.390625 -5.65625 -1.390625l-3.484375 0q-4.328125 0 -6.3125 1.609375q-1.96875 1.609375 -1.96875 4.75q0 2.75 1.75 4.140629q1.75 1.375 5.421875 1.921875l6.71875 1.109375q8.546875 1.1875 12.546875 4.734375q4.015625 3.546875 4.015625 10.265625q0 7.265625 -4.75 11.3125q-4.734375 4.046875 -14.109375 4.046875l-3.953125 0z" fill-rule="nonzero"/></g></svg>