<svg version="1.1" viewBox="0.0 0.0 1189.286089238845 194.4461942257218" fill="none" stroke="none" stroke-linecap="square" stroke-miterlimit="10" xmlns:xlink="http://www.w3.org/1999/xlink" xmlns="http://www.w3.org/2000/svg"><clipPath id="p.0"><path d="m0 0l1189.2861 0l0 194.4462l-1189.2861 0l0 -194.4462z" clip-rule="nonzero"/></clipPath><g clip-path="url(#p.0)"><path fill="#000000" fill-opacity="0.0" d="m0 0l1189.2861 0l0 194.4462l-1189.2861 0z" fill-rule="evenodd"/><path fill="#000000" fill-opacity="0.0" d="m0 0l1189.2914 0l0 194.4567l-1189.2914 0z" fill-rule="evenodd"/><path fill="#000000" fill-opacity="0.0" d="m0 -0.062992126l1189.2914 0l0 194.4567l-1189.2914 0z" fill-rule="evenodd"/><path fill="#0969da" d="m394.02994 129.1591l-46.71875 -22.703133l0 -12.0625l46.71875 -22.71875l0 10.78125l-31.890625 15.25q-2.140625 0.953125 -4.0625 1.65625q-1.921875 0.6875 -2.875 0.90625q1.0625 0.203125 3.03125 0.84375q1.984375 0.640625 3.90625 1.609375l31.890625 15.359375l0 11.078133zm58.75943 -83.1875l-19.1875 42.67187l30.921875 0l-56.53125 58.656258l26.140625 -44.796883l-29.328125 0l47.984375 -56.531246zm22.5094 83.1875l0 -10.875008l31.890625 -15.25q2.125 -0.953125 4.046875 -1.59375q1.921875 -0.640625 2.890625 -0.859375q-1.078125 -0.21875 -3.046875 -0.90625q-1.96875 -0.6875 -3.890625 -1.65625l-31.890625 -15.25l0 -11.09375l46.71875 22.71875l0 12.0625l-46.71875 22.703133zm159.76886 6.40625q-5.4375 0 -9.5 -2.1875q-4.046875 -2.1875 -6.34375 -6.2343826q-2.28125 -4.0625 -2.28125 -9.390625l0 -49.59375l-19.203125 0l0 -10.453121l30.71875 0l0 60.04687q0 3.40625 1.921875 5.390625q1.921875 1.96875 5.21875 1.96875l18.140625 0l0 10.453133l-18.671875 0zm32.212524 0l0 -10.453133l20.578125 0l0 -37.75l-17.90625 0l0 -10.453125l29.109375 0l0 48.203125l18.875 0l0 10.453133l-50.65625 0zm25.0625 -68.79688q-3.734375 0 -5.984375 -1.96875q-2.234375 -1.9687462 -2.234375 -5.281246q0 -3.40625 2.234375 -5.375q2.25 -1.984375 5.984375 -1.984375q3.734375 0 5.96875 1.984375q2.234375 1.96875 2.234375 5.375q0 3.3125 -2.234375 5.281246q-2.234375 1.96875 -5.96875 1.96875zm66.4469 69.85938q-7.25 0 -11.515625 -4.0q-4.265625 -4.0 -4.265625 -10.921883l2.453125 2.65625l-2.453125 0l0 11.203133l-11.421875 0l0 -77.859375l11.53125 0l0 16.749996l-0.328125 13.640625l2.671875 0l-2.453125 2.671875q0 -6.9375 4.3125 -10.9375q4.328125 -4.0 11.46875 -4.0q8.859375 0 14.1875 5.984375q5.328125 5.96875 5.328125 16.203125l0 16.53125q0 10.140625 -5.328125 16.109383q-5.328125 5.96875 -14.1875 5.96875zm-3.953125 -10.015633q5.65625 0 8.859375 -3.25q3.203125 -3.265625 3.203125 -9.453125l0 -15.359375q0 -6.1875 -3.203125 -9.4375q-3.203125 -3.25 -8.859375 -3.25q-5.4375 0 -8.578125 3.359375q-3.140625 3.359375 -3.140625 9.328125l0 15.359375q0 5.984375 3.140625 9.34375q3.140625 3.359375 8.578125 3.359375zm40.743774 8.953133l0 -77.859375l11.53125 0l0 19.203121l-0.109375 11.1875l2.765625 0l-2.765625 2.671875q0 -7.03125 4.15625 -10.984375q4.15625 -3.953125 11.515625 -3.953125q8.75 0 13.96875 5.609375q5.234375 5.59375 5.234375 15.09375l0 39.031258l-11.515625 0l0 -37.750008q0 -5.765625 -3.09375 -8.96875q-3.09375 -3.203125 -8.4375 -3.203125q-5.4375 0 -8.578125 3.359375q-3.140625 3.359375 -3.140625 9.546875l0 37.015633l-11.53125 0z" fill-rule="nonzero"/></g></svg>